<?xml version="1.0" encoding="utf-8"?>
<!-- Generator: Adobe Illustrator 26.1.0, SVG Export Plug-In . SVG Version: 6.00 Build 0)  -->
<svg version="1.1" id="Laag_1" xmlns="http://www.w3.org/2000/svg" xmlns:xlink="http://www.w3.org/1999/xlink" x="0px" y="0px"
	 viewBox="0 0 595.3 841.9" style="enable-background:new 0 0 595.3 841.9;" xml:space="preserve">
<g>
	<g>
		<path d="M546.9,434.6c-35.1-0.7-70.2-1.4-105.3-2.2c-33.1-0.7-67-0.1-99.4-8.2c-7.1-1.8-14.5-3.6-20.9-7.3
			c-4.6-2.6-9.9-6.8-10.1-12.6c-0.2-6.8,6.5-11.3,11.9-14.1c3.5-1.8,7.3-3.4,11.3-3.1c3.5,0.2,6.6,2.1,9.3,4.2
			c5.2,4.1,9.8,8.3,16.3,10.1c5.9,1.7,12.4,1.6,18.3-0.1c12.4-3.5,20.9-14.1,22.3-26.9c1.4-13.2-5.2-25.1-16.4-31.8
			c-12.5-7.4-28.1-9-42.2-10.3c-14.2-1.3-28.7-1.8-42.8,0.8c-11.9,2.2-24,6.8-32.6,15.6c-8.9,9.1-12.6,21.7-10.8,34.2
			c0.9,6.1,3.1,12,6.5,17.1c4,5.9,9.6,10,15.5,13.9c6.1,4,11.7,8.4,16,14.3c3.9,5.5,6.7,11.9,7.1,18.7c0.4,6.3-1.1,12.8-4.5,18.1
			c-3.9,6-10,9.6-16.9,11c-13.5,2.8-27.4-1.6-38.7-8.9c-11.8-7.5-21.3-18.1-29.2-29.5c-4.2-6.2-8.4-12.5-14.4-17.1
			c-5.5-4.2-12.1-6.8-18.9-8.2c-7-1.5-14.1-2-21.2-2.4c-6.8-0.4-13.6-0.6-20.4,0.5c-6.4,1-12.5,3.5-17.3,7.9
			c-2.4,2.2,1.2,5.7,3.5,3.5c10.1-9.3,26-7.5,38.6-6.6c7.1,0.5,14.2,1.3,21,3.5c7,2.2,12.8,6.1,17.6,11.7c4.7,5.6,8.4,12,12.9,17.7
			c4.2,5.3,8.8,10.4,13.9,14.9c10,8.8,22,16,35.3,18.2c13.6,2.2,28.8-0.3,37.4-12c7.9-10.8,7.9-25.4,2.2-37.1
			c-3-6.1-7.5-11.6-12.7-16c-5.8-4.9-12.9-8.2-18.3-13.6c-8.8-8.5-12.3-21.9-9.6-33.7c5.9-26.2,36.6-32.5,59.5-32.5
			c15.5,0,31.7,1.2,46.8,5.1c12.5,3.2,24.9,10,27.8,23.6c2.6,12.3-3.2,25.4-14.9,30.4c-5.5,2.4-11.9,2.9-17.8,1.5
			c-6.6-1.6-11.1-5.9-16.3-9.9c-2.6-2-5.4-3.7-8.5-4.4c-3.9-0.9-7.9-0.4-11.6,0.9c-6.3,2.2-12.8,6.1-16.8,11.5
			c-3.6,5-4,11.5-0.9,16.9c3.1,5.2,8.5,8.8,13.8,11.2c6.8,3.1,14.3,5,21.7,6.7c8,1.9,16,3.2,24.1,4.2c16.3,2,32.7,2.6,49,2.9
			c34.8,0.8,69.6,1.4,104.4,2.2c8.5,0.2,16.9,0.3,25.4,0.5C550.2,439.7,550.2,434.7,546.9,434.6L546.9,434.6z"/>
	</g>
</g>
</svg>
